# xmcd
#
# Track frame offsets: 
#        150
#        22399
#        46739
#        70241
#        80355
#        93832
#        109964
#        130994
#
# Disc length: 1887 seconds
#
# Revision: 0
# Processed by: cddbd v1.5.2PL0 Copyright (c) Steve Scherf et al.
# Submitted via: ExactAudioCopy v1.0b4
#
DISCID=67075d08
DTITLE=Ronnie Shellist - Hangover Blues, Vol. 1
DYEAR=2015
DGENRE=Blues
TTITLE0=Ronnie's Mood
TTITLE1=My Two Friends
TTITLE2=Got A Mind To Give Up Living
TTITLE3=La Rumba De La Casa Roja
TTITLE4=Key To The Highway
TTITLE5=Make Me A Pallet
TTITLE6=Steady Rollin' Man
TTITLE7=Casa Blanca Rag
EXTD=
EXTT0=
EXTT1=
EXTT2=
EXTT3=
EXTT4=
EXTT5=
EXTT6=
EXTT7=
PLAYORDER=
